<svg xmlns="http://www.w3.org/2000/svg" xmlns:xlink="http://www.w3.org/1999/xlink" width="871.654" height="897.389"><rect id="backgroundrect" width="100%" height="100%" x="0" y="0" fill="none" stroke="none"/>
  <defs>
    <linearGradient id="linear-gradient" x1="0.5" x2="0.5" y2="1" gradientUnits="objectBoundingBox">
      <stop offset="0" stop-color="#33c8c1"/>
      <stop offset="1" stop-color="#119bd2"/>
    </linearGradient>
  </defs>
  
<g class="currentLayer" style=""><title>Layer 1</title><g id="Group_109" data-name="Group 109" transform="rotate(180 1933.9959716796875,3219.25) " class="selected" opacity="0.5">
    <path id="Path_187" data-name="Path 187" d="M3867.0099716796876,5541.112 S3772.1959716796873,5772.65 3441.9959716796875,5698.55 s-471.11,172.11 -441.91,381.669 s109.33,282.112 352.12,174.071 s414.688,-54.082 514.8,184.208 C3869.2199716796877,6440.188 3867.0099716796876,5541.112 3867.0099716796876,5541.112 z" opacity="0.5" fill="url(#linear-gradient)"/>
    <path id="Path_197" data-name="Path 197" d="M3867.0099716796876,5541.112 S3772.1959716796873,5772.65 3441.9959716796875,5698.55 s-471.11,172.11 -441.91,381.669 s109.33,282.112 352.12,174.071 s414.688,-54.082 514.8,184.208 C3869.2199716796877,6440.188 3867.0099716796876,5541.112 3867.0099716796876,5541.112 z" opacity="0.5" fill="url(#linear-gradient)"/>
  </g></g></svg>